<mxfile host="app.diagrams.net" modified="2023-06-15T02:05:39.989Z" agent="Mozilla/5.0 (Windows NT 10.0; Win64; x64) AppleWebKit/537.36 (KHTML, like Gecko) Chrome/114.0.0.0 Safari/537.36" etag="2oXlJeKWyB-UNKC7Ifo8" version="21.3.8" type="github">
  <diagram id="C5RBs43oDa-KdzZeNtuy" name="Page-1">
    <mxGraphModel dx="1562" dy="841" grid="1" gridSize="10" guides="1" tooltips="1" connect="1" arrows="1" fold="1" page="1" pageScale="1" pageWidth="827" pageHeight="1169" math="0" shadow="0">
      <root>
        <mxCell id="WIyWlLk6GJQsqaUBKTNV-0" />
        <mxCell id="WIyWlLk6GJQsqaUBKTNV-1" parent="WIyWlLk6GJQsqaUBKTNV-0" />
        <mxCell id="qdHbhlik8MCuXqdFUVAw-1" style="edgeStyle=orthogonalEdgeStyle;rounded=0;orthogonalLoop=1;jettySize=auto;html=1;exitX=1;exitY=0.5;exitDx=0;exitDy=0;entryX=0;entryY=0.5;entryDx=0;entryDy=0;" edge="1" parent="WIyWlLk6GJQsqaUBKTNV-1" source="WIyWlLk6GJQsqaUBKTNV-3" target="qdHbhlik8MCuXqdFUVAw-0">
          <mxGeometry relative="1" as="geometry" />
        </mxCell>
        <mxCell id="qdHbhlik8MCuXqdFUVAw-5" value="" style="edgeStyle=orthogonalEdgeStyle;rounded=0;orthogonalLoop=1;jettySize=auto;html=1;" edge="1" parent="WIyWlLk6GJQsqaUBKTNV-1" source="WIyWlLk6GJQsqaUBKTNV-3" target="qdHbhlik8MCuXqdFUVAw-4">
          <mxGeometry relative="1" as="geometry" />
        </mxCell>
        <mxCell id="WIyWlLk6GJQsqaUBKTNV-3" value="Inference Scalability" style="rounded=1;whiteSpace=wrap;html=1;fontSize=12;glass=0;strokeWidth=1;shadow=0;" parent="WIyWlLk6GJQsqaUBKTNV-1" vertex="1">
          <mxGeometry x="160" y="80" width="120" height="40" as="geometry" />
        </mxCell>
        <mxCell id="qdHbhlik8MCuXqdFUVAw-3" value="" style="edgeStyle=orthogonalEdgeStyle;rounded=0;orthogonalLoop=1;jettySize=auto;html=1;" edge="1" parent="WIyWlLk6GJQsqaUBKTNV-1" source="qdHbhlik8MCuXqdFUVAw-0" target="qdHbhlik8MCuXqdFUVAw-2">
          <mxGeometry relative="1" as="geometry" />
        </mxCell>
        <mxCell id="qdHbhlik8MCuXqdFUVAw-8" value="" style="edgeStyle=orthogonalEdgeStyle;rounded=0;orthogonalLoop=1;jettySize=auto;html=1;" edge="1" parent="WIyWlLk6GJQsqaUBKTNV-1" source="qdHbhlik8MCuXqdFUVAw-0" target="qdHbhlik8MCuXqdFUVAw-6">
          <mxGeometry relative="1" as="geometry" />
        </mxCell>
        <mxCell id="qdHbhlik8MCuXqdFUVAw-0" value="Deploy models" style="rounded=1;whiteSpace=wrap;html=1;fontSize=12;glass=0;strokeWidth=1;shadow=0;" vertex="1" parent="WIyWlLk6GJQsqaUBKTNV-1">
          <mxGeometry x="370" y="80" width="120" height="40" as="geometry" />
        </mxCell>
        <mxCell id="qdHbhlik8MCuXqdFUVAw-2" value="Distribute incoming requests" style="whiteSpace=wrap;html=1;rounded=1;glass=0;strokeWidth=1;shadow=0;" vertex="1" parent="WIyWlLk6GJQsqaUBKTNV-1">
          <mxGeometry x="570" y="70" width="120" height="60" as="geometry" />
        </mxCell>
        <mxCell id="qdHbhlik8MCuXqdFUVAw-7" value="" style="edgeStyle=orthogonalEdgeStyle;rounded=0;orthogonalLoop=1;jettySize=auto;html=1;" edge="1" parent="WIyWlLk6GJQsqaUBKTNV-1" source="qdHbhlik8MCuXqdFUVAw-4" target="qdHbhlik8MCuXqdFUVAw-6">
          <mxGeometry relative="1" as="geometry" />
        </mxCell>
        <mxCell id="qdHbhlik8MCuXqdFUVAw-10" value="" style="edgeStyle=orthogonalEdgeStyle;rounded=0;orthogonalLoop=1;jettySize=auto;html=1;" edge="1" parent="WIyWlLk6GJQsqaUBKTNV-1" source="qdHbhlik8MCuXqdFUVAw-4" target="qdHbhlik8MCuXqdFUVAw-9">
          <mxGeometry relative="1" as="geometry" />
        </mxCell>
        <mxCell id="qdHbhlik8MCuXqdFUVAw-4" value="ML CI/CD" style="whiteSpace=wrap;html=1;rounded=1;glass=0;strokeWidth=1;shadow=0;" vertex="1" parent="WIyWlLk6GJQsqaUBKTNV-1">
          <mxGeometry x="160" y="190" width="120" height="60" as="geometry" />
        </mxCell>
        <mxCell id="qdHbhlik8MCuXqdFUVAw-13" style="edgeStyle=orthogonalEdgeStyle;rounded=0;orthogonalLoop=1;jettySize=auto;html=1;entryX=0.5;entryY=0;entryDx=0;entryDy=0;" edge="1" parent="WIyWlLk6GJQsqaUBKTNV-1" source="qdHbhlik8MCuXqdFUVAw-6" target="qdHbhlik8MCuXqdFUVAw-11">
          <mxGeometry relative="1" as="geometry">
            <mxPoint x="430" y="280" as="targetPoint" />
          </mxGeometry>
        </mxCell>
        <mxCell id="qdHbhlik8MCuXqdFUVAw-6" value="Version Control" style="whiteSpace=wrap;html=1;rounded=1;glass=0;strokeWidth=1;shadow=0;" vertex="1" parent="WIyWlLk6GJQsqaUBKTNV-1">
          <mxGeometry x="370" y="190" width="120" height="60" as="geometry" />
        </mxCell>
        <mxCell id="qdHbhlik8MCuXqdFUVAw-12" value="" style="edgeStyle=orthogonalEdgeStyle;rounded=0;orthogonalLoop=1;jettySize=auto;html=1;" edge="1" parent="WIyWlLk6GJQsqaUBKTNV-1" source="qdHbhlik8MCuXqdFUVAw-9" target="qdHbhlik8MCuXqdFUVAw-11">
          <mxGeometry relative="1" as="geometry" />
        </mxCell>
        <mxCell id="qdHbhlik8MCuXqdFUVAw-15" value="" style="edgeStyle=orthogonalEdgeStyle;rounded=0;orthogonalLoop=1;jettySize=auto;html=1;" edge="1" parent="WIyWlLk6GJQsqaUBKTNV-1" source="qdHbhlik8MCuXqdFUVAw-9" target="qdHbhlik8MCuXqdFUVAw-14">
          <mxGeometry relative="1" as="geometry" />
        </mxCell>
        <mxCell id="qdHbhlik8MCuXqdFUVAw-9" value="Implement CI/CD Pipelines" style="whiteSpace=wrap;html=1;rounded=1;glass=0;strokeWidth=1;shadow=0;" vertex="1" parent="WIyWlLk6GJQsqaUBKTNV-1">
          <mxGeometry x="160" y="330" width="120" height="60" as="geometry" />
        </mxCell>
        <mxCell id="qdHbhlik8MCuXqdFUVAw-11" value="Infrastructure Definition" style="whiteSpace=wrap;html=1;rounded=1;glass=0;strokeWidth=1;shadow=0;" vertex="1" parent="WIyWlLk6GJQsqaUBKTNV-1">
          <mxGeometry x="370" y="330" width="120" height="60" as="geometry" />
        </mxCell>
        <mxCell id="qdHbhlik8MCuXqdFUVAw-17" value="" style="edgeStyle=orthogonalEdgeStyle;rounded=0;orthogonalLoop=1;jettySize=auto;html=1;" edge="1" parent="WIyWlLk6GJQsqaUBKTNV-1" source="qdHbhlik8MCuXqdFUVAw-14" target="qdHbhlik8MCuXqdFUVAw-16">
          <mxGeometry relative="1" as="geometry" />
        </mxCell>
        <mxCell id="qdHbhlik8MCuXqdFUVAw-14" value="CI/CD Implementration" style="whiteSpace=wrap;html=1;rounded=1;glass=0;strokeWidth=1;shadow=0;" vertex="1" parent="WIyWlLk6GJQsqaUBKTNV-1">
          <mxGeometry x="160" y="470" width="120" height="60" as="geometry" />
        </mxCell>
        <mxCell id="qdHbhlik8MCuXqdFUVAw-19" value="" style="edgeStyle=orthogonalEdgeStyle;rounded=0;orthogonalLoop=1;jettySize=auto;html=1;" edge="1" parent="WIyWlLk6GJQsqaUBKTNV-1" source="qdHbhlik8MCuXqdFUVAw-16" target="qdHbhlik8MCuXqdFUVAw-18">
          <mxGeometry relative="1" as="geometry" />
        </mxCell>
        <mxCell id="qdHbhlik8MCuXqdFUVAw-21" value="" style="edgeStyle=orthogonalEdgeStyle;rounded=0;orthogonalLoop=1;jettySize=auto;html=1;" edge="1" parent="WIyWlLk6GJQsqaUBKTNV-1" source="qdHbhlik8MCuXqdFUVAw-16" target="qdHbhlik8MCuXqdFUVAw-20">
          <mxGeometry relative="1" as="geometry" />
        </mxCell>
        <mxCell id="qdHbhlik8MCuXqdFUVAw-16" value="Model Validation" style="whiteSpace=wrap;html=1;rounded=1;glass=0;strokeWidth=1;shadow=0;" vertex="1" parent="WIyWlLk6GJQsqaUBKTNV-1">
          <mxGeometry x="160" y="610" width="120" height="60" as="geometry" />
        </mxCell>
        <mxCell id="qdHbhlik8MCuXqdFUVAw-23" value="" style="edgeStyle=orthogonalEdgeStyle;rounded=0;orthogonalLoop=1;jettySize=auto;html=1;" edge="1" parent="WIyWlLk6GJQsqaUBKTNV-1" source="qdHbhlik8MCuXqdFUVAw-18" target="qdHbhlik8MCuXqdFUVAw-22">
          <mxGeometry relative="1" as="geometry" />
        </mxCell>
        <mxCell id="qdHbhlik8MCuXqdFUVAw-18" value="Data Versioning and Storage" style="whiteSpace=wrap;html=1;rounded=1;glass=0;strokeWidth=1;shadow=0;" vertex="1" parent="WIyWlLk6GJQsqaUBKTNV-1">
          <mxGeometry x="160" y="750" width="120" height="60" as="geometry" />
        </mxCell>
        <mxCell id="qdHbhlik8MCuXqdFUVAw-20" value="Drift Detection &lt;br&gt;(Model and Data)" style="whiteSpace=wrap;html=1;rounded=1;glass=0;strokeWidth=1;shadow=0;" vertex="1" parent="WIyWlLk6GJQsqaUBKTNV-1">
          <mxGeometry x="360" y="610" width="120" height="60" as="geometry" />
        </mxCell>
        <mxCell id="qdHbhlik8MCuXqdFUVAw-25" value="" style="edgeStyle=orthogonalEdgeStyle;rounded=0;orthogonalLoop=1;jettySize=auto;html=1;" edge="1" parent="WIyWlLk6GJQsqaUBKTNV-1" source="qdHbhlik8MCuXqdFUVAw-22" target="qdHbhlik8MCuXqdFUVAw-24">
          <mxGeometry relative="1" as="geometry" />
        </mxCell>
        <mxCell id="qdHbhlik8MCuXqdFUVAw-22" value="Security and Compliance" style="whiteSpace=wrap;html=1;rounded=1;glass=0;strokeWidth=1;shadow=0;" vertex="1" parent="WIyWlLk6GJQsqaUBKTNV-1">
          <mxGeometry x="160" y="890" width="120" height="60" as="geometry" />
        </mxCell>
        <mxCell id="qdHbhlik8MCuXqdFUVAw-24" value="Logging and Monitoring" style="whiteSpace=wrap;html=1;rounded=1;glass=0;strokeWidth=1;shadow=0;" vertex="1" parent="WIyWlLk6GJQsqaUBKTNV-1">
          <mxGeometry x="160" y="1030" width="120" height="60" as="geometry" />
        </mxCell>
      </root>
    </mxGraphModel>
  </diagram>
</mxfile>
